<svg width="68" height="65" viewBox="0 0 68 65" fill="none" xmlns="http://www.w3.org/2000/svg">
<g clip-path="url(#clip0_83_59)">
<path d="M64.7097 30.5176C64.7097 29.3006 64.2079 28.1334 63.3146 27.2728C62.4214 26.4122 61.21 25.9287 59.9468 25.9287H40.8952V7.57325C40.8952 6.3562 40.3934 5.189 39.5002 4.32842C38.6069 3.46784 37.3955 2.98438 36.1323 2.98438H31.3694C30.1062 2.98438 28.8947 3.46784 28.0015 4.32842C27.1083 5.189 26.6065 6.3562 26.6065 7.57325V25.9287H7.55489C6.29169 25.9287 5.08023 26.4122 4.18701 27.2728C3.2938 28.1334 2.79199 29.3006 2.79199 30.5176V35.1065C2.79199 36.3235 3.2938 37.4907 4.18701 38.3513C5.08023 39.2119 6.29169 39.6953 7.55489 39.6953H26.6065V58.0508C26.6065 59.2679 27.1083 60.4351 28.0015 61.2956C28.8947 62.1562 30.1062 62.6397 31.3694 62.6397H36.1323C37.3955 62.6397 38.6069 62.1562 39.5002 61.2956C40.3934 60.4351 40.8952 59.2679 40.8952 58.0508V39.6953H59.9468C61.21 39.6953 62.4214 39.2119 63.3146 38.3513C64.2079 37.4907 64.7097 36.3235 64.7097 35.1065V30.5176Z" stroke="#27355F" stroke-width="5" stroke-linecap="round" stroke-linejoin="round"/>
</g>
<defs>
<clipPath id="clip0_83_59">
<rect width="66.6806" height="64.2442" fill="white" transform="translate(0.410156 0.689941)"/>
</clipPath>
</defs>
</svg>
