<svg width="67" height="65" viewBox="0 0 67 65" fill="none" xmlns="http://www.w3.org/2000/svg">
<g clip-path="url(#clip0_75_355)">
<path d="M64.3802 44.2973C64.2096 42.7624 63.559 41.3137 62.5147 40.1431C61.4703 38.9724 60.0815 38.1351 58.5321 37.742C56.9827 37.3489 55.346 37.4186 53.8387 37.9419C52.3313 38.4651 51.0246 39.4172 50.0915 40.6721L45.3286 36.0832C45.3286 36.0832 44.9476 35.8538 44.8047 35.7161C46.4806 31.0961 46.7523 26.1111 45.5879 21.3473C44.4235 16.5836 41.8715 12.2393 38.2319 8.82531C36.3797 6.87047 34.1249 5.30908 31.6114 4.24078C29.0979 3.17248 26.3808 2.62073 23.6336 2.62073C20.8864 2.62073 18.1693 3.17248 15.6558 4.24078C13.1423 5.30908 10.8875 6.87047 9.03532 8.82531C7.00064 10.6008 5.37109 12.7642 4.25001 15.1785C3.12894 17.5927 2.5408 20.2051 2.52288 22.8499C2.50497 25.4946 3.05768 28.1142 4.14596 30.5423C5.23424 32.9704 6.83434 35.1542 8.8448 36.9551C12.4597 40.5638 17.095 43.0702 22.1753 44.1634C27.2556 45.2565 32.5572 44.8882 37.4222 43.1042C37.4131 43.2264 37.4131 43.3491 37.4222 43.4713L42.9948 48.7944C42.0233 49.5835 41.2678 50.5903 40.7944 51.7265C40.3211 52.8626 40.1444 54.0933 40.2799 55.3106C40.4947 57.3248 41.5311 59.1743 43.1612 60.4523C44.7913 61.7302 46.8816 62.3319 48.9722 62.125C51.0628 61.9181 52.9825 60.9196 54.3089 59.349C55.6353 57.7785 56.2599 55.7646 56.0451 53.7504C55.9883 53.4243 55.9088 53.1024 55.807 52.7867H57.2835C58.3353 52.696 59.3574 52.4021 60.2887 51.9223C61.22 51.4426 62.0413 50.7869 62.7037 49.9945C63.3661 49.2021 63.856 48.2892 64.144 47.3104C64.4321 46.3315 64.5124 45.3067 64.3802 44.2973V44.2973Z" stroke="#27355F" stroke-width="5" stroke-linecap="round" stroke-linejoin="round"/>
</g>
<defs>
<clipPath id="clip0_75_355">
<rect width="66.6806" height="64.2442" fill="white" transform="translate(0.128906 0.244141)"/>
</clipPath>
</defs>
</svg>
