<svg width="63" height="61" viewBox="0 0 63 61" fill="none" xmlns="http://www.w3.org/2000/svg">
<path d="M59.5053 53.0905C59.5803 53.6801 59.513 54.2771 59.3077 54.8422C59.1025 55.4072 58.764 55.9275 58.3146 56.3689C57.8639 56.8095 57.3125 57.161 56.6968 57.4001C56.0811 57.6391 55.415 57.7604 54.7424 57.7559H8.25649C7.58384 57.7604 6.91774 57.6391 6.30203 57.4001C5.68633 57.161 5.13499 56.8095 4.68432 56.3689C4.23485 55.9275 3.89637 55.4072 3.69114 54.8422C3.48591 54.2771 3.41859 53.6801 3.49359 53.0905L7.68494 19.9285H55.3139L59.5053 53.0905Z" stroke="#27355F" stroke-width="5" stroke-linecap="round" stroke-linejoin="round"/>
<path d="M19.5928 19.9284V13.6238C19.5928 10.837 20.8473 8.16438 23.0803 6.19382C25.3134 4.22326 28.342 3.11621 31.5 3.11621C34.658 3.11621 37.6867 4.22326 39.9197 6.19382C42.1528 8.16438 43.4073 10.837 43.4073 13.6238V19.9284" stroke="#27355F" stroke-width="5" stroke-linecap="round" stroke-linejoin="round"/>
</svg>
