<svg width="68" height="65" viewBox="0 0 68 65" fill="none" xmlns="http://www.w3.org/2000/svg">
<g clip-path="url(#clip0_83_28)">
<path d="M57.8821 62.6397H10.2531C8.98993 62.6397 7.77847 62.1562 6.88525 61.2956C5.99204 60.4351 5.49023 59.2679 5.49023 58.0508V7.57325C5.49023 6.3562 5.99204 5.189 6.88525 4.32842C7.77847 3.46784 8.98993 2.98438 10.2531 2.98438H57.8821C59.1453 2.98438 60.3568 3.46784 61.25 4.32842C62.1432 5.189 62.645 6.3562 62.645 7.57325V58.0508C62.645 59.2679 62.1432 60.4351 61.25 61.2956C60.3568 62.1562 59.1453 62.6397 57.8821 62.6397Z" stroke="#27355F" stroke-width="5" stroke-linecap="round" stroke-linejoin="round"/>
<path d="M19.7793 2.98438V62.6397" stroke="#27355F" stroke-width="5" stroke-linecap="round" stroke-linejoin="round"/>
<path d="M36.4492 19.0454H45.975" stroke="#27355F" stroke-width="5" stroke-linecap="round" stroke-linejoin="round"/>
</g>
<defs>
<clipPath id="clip0_83_28">
<rect width="66.6806" height="64.2442" fill="white" transform="translate(0.727539 0.689941)"/>
</clipPath>
</defs>
</svg>
