<svg width="68" height="65" viewBox="0 0 68 65" fill="none" xmlns="http://www.w3.org/2000/svg">
<g clip-path="url(#clip0_83_23)">
<path d="M22.5578 10.5233L20.7002 10.9363C20.8685 11.6416 20.8895 12.3721 20.7621 13.0854C20.6347 13.7986 20.3614 14.4804 19.9581 15.091C19.5548 15.7016 19.0296 16.2288 18.4129 16.6421C17.7962 17.0554 17.1004 17.3464 16.366 17.4983C14.8767 17.8002 13.3239 17.527 12.0414 16.7376C10.7589 15.9481 9.84906 14.7054 9.50742 13.2766L5.79236 14.0108C5.28288 14.1179 4.80123 14.3234 4.37651 14.6149C3.95178 14.9064 3.5928 15.2778 3.32124 15.7067C3.04968 16.1356 2.8712 16.6131 2.79656 17.1103C2.72192 17.6076 2.75268 18.1142 2.88699 18.5997C2.88699 18.5997 4.60163 26.2631 6.60205 34.8902" stroke="#27355F" stroke-width="5" stroke-linecap="round" stroke-linejoin="round"/>
<path d="M58.2792 10.4773C57.9946 11.25 57.5501 11.959 56.9727 12.5613C56.3953 13.1636 55.697 13.6467 54.9201 13.9813C54.1433 14.3159 53.3039 14.4951 52.4531 14.508C51.6022 14.5209 50.7574 14.3672 49.97 14.0563C49.1826 13.7454 48.4689 13.2837 47.8721 12.6992C47.2754 12.1147 46.808 11.4195 46.4983 10.6558C46.1886 9.89217 46.043 9.07588 46.0704 8.25641C46.0978 7.43694 46.2976 6.63136 46.6577 5.88848L42.7998 4.1447C41.7696 3.73108 40.6117 3.72556 39.5773 4.12934C38.543 4.53312 37.7156 5.31363 37.2748 6.30147L21.2715 42.5994L19.1758 47.1883C18.7465 48.1808 18.7407 49.2964 19.1598 50.293C19.5789 51.2896 20.389 52.0867 21.4143 52.5114L40.7517 60.4501C41.7819 60.8638 42.9398 60.8693 43.9742 60.4655C45.0085 60.0617 45.8359 59.2812 46.2767 58.2934L64.3757 17.2689C64.7748 16.3149 64.7855 15.251 64.4058 14.2897C64.0262 13.3284 63.284 12.5405 62.3276 12.0835L58.2792 10.4773Z" stroke="#27355F" stroke-width="5" stroke-linecap="round" stroke-linejoin="round"/>
</g>
<defs>
<clipPath id="clip0_83_23">
<rect width="66.6806" height="64.2442" fill="white" transform="translate(0.410156 0.244141)"/>
</clipPath>
</defs>
</svg>
