<svg width="67" height="65" viewBox="0 0 67 65" fill="none" xmlns="http://www.w3.org/2000/svg">
<g clip-path="url(#clip0_75_367)">
<path d="M55.099 23.1885C55.1254 19.5026 54.1273 15.877 52.2083 12.6882C50.2893 9.49934 47.5194 6.86353 44.1861 5.05437C40.8528 3.24521 37.0776 2.32866 33.2525 2.39985C29.4274 2.47104 25.6917 3.5274 22.4334 5.45924C19.1751 7.39109 16.5129 10.128 14.7232 13.3858C12.9335 16.6437 12.0815 20.3037 12.2556 23.9859C12.4298 27.6681 13.6238 31.2383 15.7136 34.3259C17.8034 37.4134 20.713 39.9057 24.1401 41.544V48.4273C24.1401 49.0358 24.391 49.6194 24.8376 50.0497C25.2843 50.48 25.89 50.7217 26.5216 50.7217H40.8103C41.4419 50.7217 42.0476 50.48 42.4942 50.0497C42.9408 49.6194 43.1917 49.0358 43.1917 48.4273V41.544C46.7519 39.854 49.7523 37.241 51.8558 33.9984C53.9592 30.7558 55.0824 27.0123 55.099 23.1885V23.1885Z" stroke="#27355F" stroke-width="5" stroke-linecap="round" stroke-linejoin="round"/>
<path d="M24.1396 62.1939H43.1912" stroke="#27355F" stroke-width="5" stroke-linecap="round" stroke-linejoin="round"/>
</g>
<defs>
<clipPath id="clip0_75_367">
<rect width="66.6806" height="64.2442" fill="white" transform="translate(0.325195 0.244141)"/>
</clipPath>
</defs>
</svg>
