<svg width="68" height="66" viewBox="0 0 68 66" fill="none" xmlns="http://www.w3.org/2000/svg">
<g clip-path="url(#clip0_75_358)">
<path d="M56.0194 3.1084H12.6868C10.0277 3.1084 7.87207 5.05755 7.87207 7.46194V48.8206C7.87207 51.225 10.0277 53.1741 12.6868 53.1741H56.0194C58.6785 53.1741 60.8341 51.225 60.8341 48.8206V7.46194C60.8341 5.05755 58.6785 3.1084 56.0194 3.1084Z" stroke="#27355F" stroke-width="5" stroke-linecap="round" stroke-linejoin="round"/>
<path d="M17.502 53.1741V59.7044" stroke="#27355F" stroke-width="5" stroke-linecap="round" stroke-linejoin="round"/>
<path d="M51.2051 53.1741V59.7044" stroke="#27355F" stroke-width="5" stroke-linecap="round" stroke-linejoin="round"/>
<path d="M7.87207 31.4064H60.8341" stroke="#27355F" stroke-width="5" stroke-linecap="round" stroke-linejoin="round"/>
<path d="M19.9093 44.4671C21.2389 44.4671 22.3167 43.4925 22.3167 42.2903C22.3167 41.0881 21.2389 40.1135 19.9093 40.1135C18.5798 40.1135 17.502 41.0881 17.502 42.2903C17.502 43.4925 18.5798 44.4671 19.9093 44.4671Z" stroke="#27355F" stroke-width="5" stroke-linecap="round" stroke-linejoin="round"/>
<path d="M48.797 44.4671C50.1266 44.4671 51.2044 43.4925 51.2044 42.2903C51.2044 41.0881 50.1266 40.1135 48.797 40.1135C47.4675 40.1135 46.3896 41.0881 46.3896 42.2903C46.3896 43.4925 47.4675 44.4671 48.797 44.4671Z" stroke="#27355F" stroke-width="5" stroke-linecap="round" stroke-linejoin="round"/>
</g>
<defs>
<clipPath id="clip0_75_358">
<rect width="66.6806" height="64.2442" fill="white" transform="translate(0.727539 0.813965)"/>
</clipPath>
</defs>
</svg>
